# xmcd
#
# Track frame offsets: 
#        150
#        10010
#        21262
#        33250
#        45950
#        57292
#        67466
#        79166
#        91098
#        104034
#        116731
#        129345
#        140473
#        152195
#        163371
#        174644
#        186302
#        197943
#        209553
#        221943
#        232664
#        243954
#        257045
#        270498
#        280815
#        291590
#        306551
#        318340
#        327004
#        337739
#
# Disc length: 4657 seconds
#
# Revision: 2
# Processed by: cddbd v1.5.2PL0 Copyright (c) Steve Scherf et al.
# Submitted via: ExactAudioCopy v0.99pb4
#
DISCID=c6122f1e
DTITLE=Lowell Fulson - Classic Cuts: 1946-1953 [CD4]
DYEAR=1900
DGENRE=Blues
TTITLE0=Sinner's Prayer (alt.)
TTITLE1=Blues with a Feelin'
TTITLE2=Why Can't You Cry for Me
TTITLE3=Let Me Ride In Your Little Automobile
TTITLE4=Lonesome Christmas (part 1)
TTITLE5=Lonesome Christmas (part 2)
TTITLE6=I'm a Night Owl (part 1)
TTITLE7=I'm a Night Owl (part 2)
TTITLE8=Fillmore Mess Around (Fulson's Guitar Boogie)
TTITLE9=Let's Live Right
TTITLE10=Guitar Shuffle (The Day Is Passing On)
TTITLE11=Mean Old Lonesome Song
TTITLE12=The Day Is Slowly Passing (alt.)
TTITLE13=The Highway Is My Home (Why Can't You Cry for Me)
TTITLE14=Upstairs
TTITLE15=I Love My Baby
TTITLE16=I've Been Mistreated
TTITLE17=You're Going to Miss Me When I'm Gone (alt.)
TTITLE18=I've Been Mistreated (diff. song)
TTITLE19=It's Hard to Believe (alt.)
TTITLE20=Ride Until the Sun Goes Down
TTITLE21=Christmas Party Shuffle
TTITLE22=The Blues Come Rollin' In
TTITLE23=My Daily Prayer
TTITLE24=Juke Box Shuffle (9.30 Shuffle)
TTITLE25=Is Your Friend Really Your Friend
TTITLE26=Let Me Love You, Baby
TTITLE27=Cash Box Boogie (aka Lowell Jumps One)
TTITLE28=Market Street Blues
TTITLE29=Best Wishes
EXTD=CD 4/4 - JSP7728D
EXTT0=
EXTT1=
EXTT2=
EXTT3=
EXTT4=
EXTT5=
EXTT6=
EXTT7=
EXTT8=
EXTT9=
EXTT10=
EXTT11=
EXTT12=
EXTT13=
EXTT14=
EXTT15=
EXTT16=
EXTT17=
EXTT18=
EXTT19=
EXTT20=
EXTT21=
EXTT22=
EXTT23=
EXTT24=
EXTT25=
EXTT26=
EXTT27=
EXTT28=
EXTT29=
PLAYORDER=
